<?xml version="1.0" standalone="no"?>
<!DOCTYPE svg PUBLIC "-//W3C//DTD SVG 20010904//EN" "http://www.w3.org/TR/2001/REC-SVG-20010904/DTD/svg10.dtd">
export const logo = <svg version="1.0" xmlns="http://www.w3.org/2000/svg" width="200.000000pt" height="200.000000pt" viewBox="0 0 200.000000 200.000000" preserveAspectRatio="xMidYMid meet">
	<metadata>
		Created by potrace 1.16, written by Peter Selinger 2001-2019
	</metadata>
	<g transform="translate(0.000000,200.000000) scale(0.100000,-0.100000)" fill="#000000" stroke="none">
		<path d="M233 1502 c-13 -8 -133 -217 -133 -232 0 -6 73 -129 163 -273 90
-144 186 -298 213 -342 75 -123 94 -149 112 -157 32 -13 307 -9 324 5 21 15
138 229 138 250 0 29 -37 37 -180 37 l-141 0 -108 168 c-60 92 -162 249 -227
350 -117 181 -139 207 -161 194z" />
		<path d="M908 1493 c-8 -10 -41 -64 -72 -120 l-57 -102 54 -88 c30 -48 125
-203 212 -343 87 -140 167 -271 178 -290 34 -59 37 -60 204 -60 182 0 165 -10
255 153 58 104 60 109 43 127 -16 18 -32 20 -165 20 l-148 0 -227 353 c-126
193 -233 355 -239 359 -16 11 -21 10 -38 -9z" />
		<path d="M1575 1493 c-10 -9 -23 -29 -29 -43 -6 -14 -30 -57 -54 -97 -23 -39
-42 -76 -42 -82 0 -9 135 -231 242 -399 55 -85 65 -83 122 18 79 139 91 169
79 188 -7 9 -48 73 -92 142 -132 206 -185 284 -197 287 -7 2 -20 -4 -29 -14z" />
	</g>
</svg>
